<svg width="20" height="25" xmlns="http://www.w3.org/2000/svg">
<path d=" M 7.29 0.00 L 7.71 0.00 C 7.56 0.08 7.27 0.25 7.13 0.34 C 9.27 0.46 11.73 -0.17 13.49 1.46 C 16.36 3.47 15.87 7.30 16.02 10.35 C 17.04 10.57 18.08 10.73 19.12 10.82 C 19.04 15.54 19.75 20.37 18.53 25.00 L 0.42 25.00 C 0.31 24.94 0.10 24.82 0.00 24.77 L 0.00 13.00 C 0.31 11.23 1.44 10.27 3.42 10.11 C 3.07 6.25 3.97 2.36 7.29 0.00 M 7.40 3.52 C 5.23 5.16 6.16 8.19 5.89 10.50 C 8.45 10.50 11.00 10.50 13.56 10.50 C 13.47 8.68 13.63 6.82 13.19 5.04 C 12.32 2.83 9.23 1.93 7.40 3.52 M 9.13 20.53 L 10.24 20.59 C 10.28 18.46 12.84 15.73 10.16 14.30 C 6.41 14.40 8.83 18.50 9.13 20.53 Z" />
</svg>
