<svg width="21" height="21" xmlns="http://www.w3.org/2000/svg">
<path d=" M 14.94 0.00 L 19.57 0.00 C 19.58 1.64 19.58 3.28 19.56 4.91 C 18.78 4.44 18.01 3.94 17.25 3.45 C 15.18 5.70 13.01 7.85 10.83 9.99 C 7.28 8.15 2.71 7.58 0.32 4.09 C 3.92 4.88 7.06 7.02 10.64 7.83 C 12.53 6.27 14.17 4.44 15.97 2.77 C 15.64 1.84 15.29 0.92 14.94 0.00 Z" />
<path d=" M 15.29 7.77 C 16.94 7.69 18.59 7.63 20.24 7.59 C 20.53 12.06 20.52 16.54 20.24 21.00 L 15.66 21.00 C 14.83 16.64 15.23 12.18 15.29 7.77 Z" />
<path d=" M 0.97 9.72 C 2.61 9.70 4.25 9.69 5.89 9.72 C 6.05 13.48 6.32 17.29 5.52 21.00 L 1.25 21.00 C 0.78 17.26 0.82 13.48 0.97 9.72 Z" />
<path d=" M 8.13 11.80 C 9.79 11.76 11.45 11.74 13.11 11.75 C 13.25 14.83 13.25 17.92 13.15 21.00 L 8.55 21.00 C 7.75 18.00 7.98 14.87 8.13 11.80 Z" />
</svg>
