<svg width="21" height="20" xmlns="http://www.w3.org/2000/svg">
<path d="M 9.53 0.00 L 11.37 0.00 C 14.91 3.61 16.51 8.57 19.19 12.79 C 20.40 14.72 22.14 18.35 18.94 19.39 C 13.70 19.97 8.38 19.73 3.12 19.56 C 0.11 19.76 -0.52 16.12 1.08 14.20 C 3.88 9.47 5.90 4.18 9.53 0.00 M 10.07 5.20 C 8.67 7.12 9.27 10.46 9.84 12.74 C 12.23 13.67 11.47 10.22 11.68 8.97 C 11.48 7.84 12.18 4.34 10.07 5.20 M 9.32 15.17 C 9.34 15.72 9.39 16.83 9.42 17.39 C 9.96 17.38 11.05 17.38 11.59 17.38 C 11.61 16.82 11.65 15.71 11.66 15.15 C 11.08 15.15 9.90 15.16 9.32 15.17 Z" />
</svg>