<svg width="19" height="19" xmlns="http://www.w3.org/2000/svg">
<path d=" M 0.00 0.00 L 19.00 0.00 L 19.00 15.42 C 15.92 15.53 12.75 15.05 9.75 15.97 C 11.44 17.16 13.54 16.90 15.48 16.97 C 15.48 17.48 15.49 18.49 15.49 19.00 L 3.56 19.00 C 3.55 18.49 3.53 17.47 3.51 16.97 C 5.47 16.94 7.55 17.13 9.26 15.97 C 6.26 15.04 3.09 15.53 0.00 15.42 L 0.00 0.00 M 4.64 8.20 C 4.62 8.22 4.56 8.27 4.53 8.29 C 4.75 9.58 4.88 10.88 5.10 12.16 C 6.75 11.68 8.45 11.39 10.15 11.86 C 12.75 12.45 15.19 10.47 15.85 8.02 C 14.03 7.90 12.20 7.79 10.38 7.61 C 11.26 5.85 11.67 3.96 11.03 2.04 C 8.85 4.04 5.12 4.83 4.64 8.20 Z" />
<path d=" M 4.53 8.29 C 4.56 8.27 4.62 8.22 4.64 8.20 C 5.52 7.51 7.27 6.13 8.15 5.45 C 7.33 7.02 6.47 8.56 5.55 10.08 C 7.51 9.32 9.59 8.84 11.67 9.41 C 10.46 9.66 8.04 10.15 6.83 10.39 C 7.94 10.88 9.04 11.37 10.15 11.86 C 8.45 11.39 6.75 11.68 5.10 12.16 C 4.88 10.88 4.75 9.58 4.53 8.29 Z" />
</svg>
