<svg width="22" height="23" xmlns="http://www.w3.org/2000/svg">
<path d=" M 11.38 0.00 L 11.92 0.00 C 13.23 2.81 12.35 6.00 12.59 8.99 C 12.27 13.64 13.21 18.45 11.98 23.00 L 11.44 23.00 C 8.29 19.83 5.03 16.31 0.64 14.93 C 0.57 12.67 0.44 10.39 0.71 8.14 C 4.92 6.44 8.44 3.41 11.38 0.00 Z" />
<path d=" M 15.22 4.18 C 19.39 4.23 22.12 9.15 21.31 12.95 C 20.73 15.80 18.38 18.95 15.20 18.81 C 14.93 17.16 16.80 16.71 17.69 15.69 C 20.22 13.71 20.20 9.27 17.66 7.30 C 16.78 6.29 14.81 5.85 15.22 4.18 Z" />
<path d=" M 15.55 7.29 C 18.42 9.48 18.23 13.52 15.61 15.84 C 13.11 14.33 17.06 12.11 15.45 10.20 C 15.21 9.77 14.73 8.90 14.48 8.47 C 14.75 8.17 15.28 7.59 15.55 7.29 Z" />
</svg>