<svg width="22" height="22" xmlns="http://www.w3.org/2000/svg">
<path d=" M 6.35 1.48 C 11.16 -0.98 17.60 0.98 20.19 5.72 C 23.14 10.57 21.25 17.52 16.24 20.21 C 11.40 23.11 4.49 21.23 1.80 16.27 C -1.28 11.21 0.96 3.93 6.35 1.48 M 7.63 5.88 C 7.62 9.69 7.62 13.50 7.63 17.31 C 8.19 17.31 9.31 17.31 9.87 17.31 C 9.87 15.79 9.88 14.26 9.88 12.74 C 11.54 12.55 13.57 13.10 14.85 11.71 C 16.04 10.04 15.83 7.16 13.83 6.19 C 11.83 5.59 9.69 5.96 7.63 5.88 Z" />
<path d=" M 9.82 8.05 C 10.70 8.06 12.45 8.06 13.33 8.06 C 13.26 8.85 13.25 9.64 13.30 10.43 C 11.44 10.56 8.91 10.86 9.82 8.05 Z" />
</svg>