<svg width="21" height="21" xmlns="http://www.w3.org/2000/svg">
    <path d="M 4.11 4.18 C 6.66 -0.58 14.35 -0.55 16.85 4.24 C 17.67 5.74 19.09 9.50 16.05 8.94 C 16.07 5.75 13.73 2.41 10.27 2.63 C 6.90 2.66 4.96 5.94 4.81 8.97 C 1.82 9.41 3.31 5.67 4.11 4.18 Z"/>
    <path d="M 7.63 4.65 C 10.44 1.78 16.32 5.19 14.42 9.00 C 12.10 9.70 13.31 5.95 11.20 5.78 C 9.16 5.04 7.95 7.28 7.79 8.98 C 4.94 9.43 6.24 5.61 7.63 4.65 Z" />
    <path d="M 9.81 7.97 C 12.65 7.28 10.99 10.90 11.62 12.34 C 14.46 12.72 17.95 11.43 20.38 13.04 C 20.35 15.41 20.74 17.87 20.16 20.18 C 13.79 20.61 7.22 20.60 0.85 20.19 C 0.27 17.85 0.61 15.35 0.65 12.96 C 3.17 11.49 6.58 12.71 9.44 12.33 C 9.68 10.88 9.20 9.36 9.81 7.97 M 3.01 15.47 C 2.77 15.99 2.56 16.58 2.93 17.10 C 4.41 16.66 5.93 16.89 7.43 17.12 C 7.73 16.12 7.38 15.32 6.37 14.72 L 6.63 16.29 C 5.38 16.26 4.14 16.01 3.01 15.47 Z" />
</svg>