<svg width="21" height="21" xmlns="http://www.w3.org/2000/svg">
<path d=" M 2.90 9.05 C 2.72 4.59 6.23 0.08 10.99 0.61 C 15.36 0.71 18.07 4.96 18.04 9.00 C 15.69 9.22 15.76 6.60 14.83 5.11 C 13.23 1.82 7.73 1.84 6.10 5.09 C 5.18 6.60 5.27 9.21 2.90 9.05 Z" />
<path d=" M 5.93 9.12 C 5.93 6.32 7.73 3.12 10.96 3.64 C 13.82 3.74 14.86 6.70 14.98 9.10 C 12.97 8.83 12.44 6.62 10.89 5.64 C 8.50 5.56 8.29 8.96 5.93 9.12 Z" />
<path d=" M 10.02 7.49 C 11.56 8.68 11.58 10.60 11.86 12.35 C 14.64 12.28 17.43 12.32 20.21 12.36 C 20.46 15.01 20.47 17.67 20.35 20.33 C 13.78 20.51 7.21 20.51 0.65 20.32 C 0.53 17.67 0.54 15.01 0.78 12.37 C 3.58 12.33 6.38 12.28 9.18 12.35 C 9.43 10.73 9.67 9.10 10.02 7.49 M 2.96 15.63 C 2.50 17.04 2.97 17.51 4.38 17.05 C 4.83 15.65 4.36 15.18 2.96 15.63 M 5.96 15.63 C 5.50 17.04 5.97 17.51 7.39 17.04 C 7.83 15.65 7.36 15.18 5.96 15.63 Z" />
</svg>