<svg width="20" height="20" xmlns="http://www.w3.org/2000/svg">
<path d=" M 8.28 0.00 L 11.65 0.00 C 14.67 0.26 17.80 1.00 20.00 3.24 L 20.00 5.22 C 18.09 7.32 14.98 6.83 12.50 7.76 C 8.33 9.30 3.18 8.47 0.00 5.26 L 0.00 3.41 C 2.02 0.94 5.28 0.32 8.28 0.00 Z" />
<path d=" M 0.00 7.29 C 2.19 9.49 5.35 9.68 8.24 10.11 C 7.62 10.90 7.01 11.70 6.40 12.49 C 4.15 11.86 1.85 11.21 0.00 9.72 L 0.00 7.29 Z" />
<path d=" M 13.38 10.00 C 13.83 10.00 14.73 10.00 15.18 10.00 C 15.18 11.12 15.19 12.25 15.20 13.37 C 16.06 13.37 17.78 13.38 18.64 13.39 L 18.62 15.18 C 17.76 15.18 16.05 15.19 15.19 15.19 C 15.19 16.05 15.18 17.76 15.18 18.61 L 13.39 18.65 C 13.38 17.78 13.37 16.06 13.37 15.20 C 12.25 15.19 11.12 15.18 10.00 15.18 C 10.00 14.73 10.00 13.83 10.00 13.38 C 10.84 13.37 12.53 13.37 13.37 13.37 C 13.37 12.53 13.37 10.84 13.38 10.00 Z" />
<path d=" M 0.00 11.18 C 1.84 12.56 4.09 13.07 6.29 13.52 C 6.34 14.19 6.45 15.54 6.50 16.21 C 4.25 15.37 1.13 15.40 0.00 12.88 L 0.00 11.18 Z" />
<path d=" M 0.00 14.97 C 3.03 17.34 7.50 16.76 9.99 20.00 L 7.57 20.00 C 4.85 19.72 2.08 19.03 0.00 17.15 L 0.00 14.97 Z" />
</svg>
