<svg width="23" height="19" xmlns="http://www.w3.org/2000/svg">
<path d=" M 6.31 0.00 L 11.97 0.00 C 13.31 0.78 12.59 1.95 12.20 3.00 C 13.29 5.14 14.47 7.22 15.65 9.30 C 17.02 8.47 18.38 7.65 19.73 6.81 C 18.89 4.43 21.48 3.58 23.00 5.06 L 23.00 5.67 C 22.21 6.32 21.41 6.96 20.63 7.61 C 20.06 10.26 19.28 12.86 18.44 15.44 C 13.75 15.40 9.06 15.53 4.38 15.35 C 3.11 12.04 3.26 7.55 0.00 5.48 L 0.00 5.22 C 0.46 4.89 1.38 4.23 1.84 3.90 C 3.03 4.53 3.48 5.50 3.21 6.81 C 4.56 7.66 5.92 8.48 7.29 9.29 C 8.44 7.25 9.60 5.21 10.65 3.11 C 10.21 2.08 10.18 1.05 10.57 0.01 L 6.31 0.00 Z" />
<path d=" M 4.24 16.95 C 9.04 16.64 13.88 16.62 18.68 16.95 L 18.30 18.80 C 13.73 18.90 9.13 19.01 4.57 18.74 L 4.24 16.95 Z" />
</svg>