<svg width="21" height="21" xmlns="http://www.w3.org/2000/svg"><path d=" M 9.29 0.00 L 11.43 0.00 C 14.11 0.54 16.17 3.18 15.74 5.94 C 14.97 9.37 12.60 12.10 10.52 14.81 C 8.38 12.12 6.03 9.36 5.26 5.92 C 4.83 3.22 6.80 0.79 9.29 0.00 M 9.39 3.53 C 7.41 4.58 8.83 8.07 11.06 7.24 C 14.14 6.53 11.85 1.74 9.39 3.53 Z"/><path d=" M 14.29 11.49 C 15.47 11.50 16.66 11.50 17.85 11.49 C 18.91 14.61 19.95 17.73 21.00 20.85 L 21.00 21.00 L 0.00 21.00 L 0.00 20.87 C 1.03 17.74 2.11 14.62 3.14 11.50 C 4.34 11.51 5.53 11.50 6.72 11.49 C 7.90 13.14 9.19 14.70 10.49 16.24 C 11.81 14.71 13.10 13.14 14.29 11.49 Z"/></svg>
