<svg width="21" height="21" xmlns="http://www.w3.org/2000/svg">
<path d=" M 5.12 0.00 L 17.55 0.00 C 17.52 4.08 17.61 8.16 17.57 12.25 C 16.14 12.90 14.22 12.91 13.33 14.40 C 12.42 15.66 12.81 17.35 12.64 18.81 C 8.42 18.76 4.21 18.71 0.00 18.74 L 0.00 6.39 C 1.61 4.19 3.25 1.99 5.12 0.00 M 10.07 2.56 C 10.06 3.17 10.05 4.40 10.05 5.01 C 11.68 4.97 13.32 4.97 14.96 5.01 C 14.95 4.39 14.94 3.17 14.93 2.55 C 13.31 2.57 11.69 2.58 10.07 2.56 M 10.07 7.49 C 10.06 8.12 10.05 9.38 10.04 10.01 C 11.68 9.96 13.31 9.97 14.95 10.01 C 14.95 9.38 14.94 8.12 14.93 7.49 C 13.31 7.51 11.69 7.51 10.07 7.49 Z" />
<path d=" M 16.21 15.25 C 19.02 13.45 21.71 18.23 18.81 19.74 C 15.96 21.59 13.24 16.78 16.21 15.25 Z" />
</svg>