<svg width="22" height="20" xmlns="http://www.w3.org/2000/svg">
<path d=" M 5.36 1.08 C 8.06 -1.10 12.31 0.95 12.83 4.22 C 13.86 7.62 10.83 11.73 7.16 10.94 C 2.74 10.04 1.77 3.54 5.36 1.08 Z" />
<path d=" M 16.20 3.15 C 19.16 4.83 18.98 8.23 18.18 11.07 C 19.52 12.12 20.82 13.22 22.00 14.44 L 22.00 17.73 C 21.32 17.74 19.95 17.75 19.27 17.76 C 19.11 14.64 17.30 12.27 14.91 10.46 C 15.10 7.99 15.83 5.59 16.20 3.15 Z" />
<path d=" M 11.40 11.13 C 14.61 12.54 16.75 15.53 15.92 19.14 C 10.92 20.46 5.60 19.82 0.50 19.51 C -0.82 15.97 1.26 12.80 4.33 11.15 C 4.87 12.60 5.34 14.07 5.77 15.55 C 7.29 15.71 8.91 16.15 10.35 15.42 C 10.91 14.05 11.07 12.56 11.40 11.13 Z" />
<path d=" M 7.28 12.20 C 8.84 10.94 10.08 13.77 8.80 14.75 C 7.28 15.92 5.99 13.16 7.28 12.20 Z" />
</svg>