<svg width="20" height="26" xmlns="http://www.w3.org/2000/svg">
<path d="M 0.43 10.95 C -0.59 5.37 4.44 -0.15 10.05 0.07 C 15.62 -0.09 20.57 5.40 19.57 10.93 C 18.19 16.82 13.35 20.93 10.53 26.00 L 9.45 26.00 C 6.63 21.01 1.85 16.79 0.43 10.95 M 8.37 3.59 C 4.01 4.56 2.06 10.47 5.05 13.81 C 7.89 17.66 14.62 16.51 16.02 11.92 C 17.93 7.34 13.07 2.10 8.37 3.59 Z"/>
<path d="M 8.21 7.01 C 10.01 5.79 12.80 6.88 13.18 9.05 C 13.98 11.71 10.60 14.16 8.33 12.58 C 6.26 11.49 6.22 8.22 8.21 7.01 Z" />
</svg>