<svg width="24" height="23" xmlns="http://www.w3.org/2000/svg">
<path d=" M 8.09 0.00 L 10.99 0.00 C 14.46 0.98 13.93 5.07 14.32 7.88 C 13.28 10.07 9.79 13.97 14.04 14.85 C 12.34 16.54 10.66 18.24 8.98 19.95 C 5.99 19.94 2.99 19.94 0.00 19.92 L 0.00 18.94 C 1.93 16.20 4.99 14.75 7.95 13.43 C 7.13 11.53 6.22 9.66 5.18 7.88 C 5.44 5.08 4.98 1.36 8.09 0.00 Z" />
<path d=" M 17.95 9.83 C 20.08 8.28 22.88 9.55 24.00 11.70 L 24.00 14.19 C 22.97 17.07 19.82 16.96 17.31 16.93 C 17.52 17.68 17.94 19.17 18.15 19.92 L 15.85 18.32 L 16.76 21.33 C 14.60 19.04 12.66 22.21 10.65 23.00 L 10.24 23.00 C 11.73 19.88 14.15 17.42 16.56 15.00 C 16.46 13.21 16.09 10.91 17.95 9.83 M 19.00 11.94 C 19.33 12.39 19.98 13.29 20.30 13.73 C 22.43 14.43 23.24 10.86 20.89 10.53 C 20.42 10.89 19.47 11.59 19.00 11.94 Z" />
</svg>
