<svg width="21" height="21" xmlns="http://www.w3.org/2000/svg">
<path d=" M 7.34 0.00 L 13.65 0.00 C 13.66 2.06 13.68 4.11 13.71 6.17 C 13.07 6.27 11.79 6.47 11.15 6.57 C 11.17 7.64 11.21 8.71 11.25 9.78 C 13.84 9.81 16.42 9.82 19.00 9.85 C 19.00 12.28 18.44 15.21 21.00 16.65 L 21.00 21.00 L 15.68 21.00 C 15.88 18.84 15.11 16.01 17.66 14.97 C 17.66 13.71 17.66 12.45 17.65 11.19 C 15.51 11.22 13.36 11.22 11.22 11.19 C 11.21 12.47 11.21 13.74 11.22 15.02 C 13.75 16.03 13.00 18.86 13.23 21.00 L 7.74 21.00 C 7.95 18.84 7.15 15.96 9.79 15.04 C 9.79 13.76 9.79 12.48 9.78 11.19 C 7.64 11.22 5.49 11.22 3.35 11.19 C 3.34 12.46 3.34 13.73 3.35 14.99 C 5.90 16.02 5.19 18.83 5.40 21.00 L 0.00 21.00 L 0.00 16.63 C 2.63 15.25 1.92 12.27 2.00 9.85 C 4.58 9.82 7.17 9.81 9.75 9.78 C 9.79 8.71 9.83 7.64 9.85 6.57 C 9.21 6.47 7.93 6.27 7.30 6.17 C 7.32 4.11 7.33 2.06 7.34 0.00 Z" />
</svg>