<svg width="200" height="200" xmlns="http://www.w3.org/2000/svg">
	<path class="st0" d="M198.6,126.5c0.3,1.7,0.3,3.7-0.3,6.3c-0.3,2.3-1,5-2,7.3s-2.3,4.6-3.7,6.6c-1.3,2-3,3.3-4.6,4.3
	s-3.3,1.3-4.3,1.3c-1.3,0-2.7-0.3-4.3-1c-1.3-0.3-3.3-0.7-5.3-1.3c-2-0.3-4.3-0.3-6.6-0.3c-2.3,0.3-4.3,0.7-6.6,1.3
	c-2.3,0.7-4,2-5.6,3.7c-3.3,3.7-5.3,7.6-6,12.3c-0.7,4.6,0,9,2,12.9c1.3,3,1.3,5.6-0.7,8.6c-1,1-2.3,2.3-4,3.7c-2,1.3-4,2.3-6,3.3
	c-2.3,1-4.6,1.7-7,2.3c-2.3,0.7-4.6,1-6.3,1c-1.3,0-2.3-0.3-3.7-1.3c-1-1-2-2-2.3-3.3h-0.3c-1.7-4.3-4.3-8.3-8-11.3
	c-3.7-3.3-8.3-4.6-13.3-4.6c-5,0-9.3,1.7-13.3,4.6c-4,3.3-6.6,7-8.3,11.3c-0.7,1.7-1.7,3-3.3,3.7c-1.3,0.7-3,1.3-4.6,1.3
	c-2,0-4.3-0.3-6.6-1c-2.7-0.7-5-1.7-7.6-2.7c-2.3-1-4.6-2.3-6.6-3.7c-2-1.3-3.3-3-4.3-4.3c-0.7-1-1-2.3-1.3-3.7
	c0-1.3,0.3-3.3,1.7-5.6c1.7-3.3,2.3-7,1.7-11.3c-0.3-4.3-2.3-8-5.3-11.6c-2-2-4.3-3.7-7.3-4.3c-3-0.7-5.6-1-8-0.7
	c-3,0-6,0.7-9.3,1.7c-2,0.7-4,0.3-6-0.3c-1.3-1-3-2.3-4.3-4.3c-1.3-2-2.7-4.3-3.7-7c-1-2.3-2-5-2.3-7.6c-0.7-2.7-0.7-4.6-0.3-6.6
	c0.3-3,2-5,4.3-6c4.3-1.7,8-4.6,11.6-8.3c3.3-4,5-8.3,5-13.3c0-5-1.7-9.3-5-12.9C13,82,9,79.4,4.6,77.7c-1.3-0.3-2.3-1.3-3.3-3
	S0,71.4,0,69.7c0-2,0.3-4,1-6.3c0.7-2.3,1.3-4.6,2.3-6.6s2-4,3.3-6c1.3-1.7,2.7-3,4-4c1-0.7,2.3-1,3.3-1s2.3,0.3,3.7,1
	c4.3,1.7,8.6,2.3,13.3,1.7s8.6-2.7,12.3-6c1.7-1.7,3-3.7,3.7-6.3c0.7-2.3,1.3-5,1.3-7.3c0.3-2.3,0.3-4.6,0-6.6
	c-0.3-2-0.3-3.3-0.7-4.3c-0.3-1-0.7-2-0.7-3c-0.3-1,0-2,0.3-3c0.7-2,2.3-3.7,4.3-5.3C53.8,5.3,56.1,4,58.8,3s5-1.7,7.6-2.3
	c2.3-0.3,4-0.7,5.6-0.7c2,0,3.3,0.7,4.3,1.7C77.4,3,78,4,78.7,5.3c1.7,4,4,7.3,7.6,10.3c3.7,3,7.6,4.3,12.6,4.3
	c5,0,9.3-1.3,13.3-4.3c4-2.7,6.6-6.3,8-10.6c0.7-1,1.3-2.3,2.7-3.7c1.3-0.7,2.3-1.3,3.7-1.3c2,0,4.3,0.3,6.6,1
	c2.3,0.7,4.6,1.3,7,2.3c2.3,1,4.3,2.3,6.3,4c2,1.7,3.3,3.3,4.6,5c0.7,1,1,2.3,0.7,3.7c-0.3,1.3-0.7,2.3-1,3c-2,4-2.3,8.6-1.7,12.9
	c0.7,4.6,2.7,8.6,6.3,12c3.3,3.3,7.6,5.3,12.6,5.6s9.6-0.3,13.9-2.3c1-0.7,2.7-1,4.3-1s3,0.7,4.3,2c2,2,4,5,5.6,9
	c1.7,4,2.7,8.3,3.3,12.3c0.3,2.3,0,4.3-1.3,5.6c-1,1.3-2.3,2.3-3.3,2.7c-4.3,1.7-8.3,4.3-11.3,8.3s-4.6,8.3-4.6,13.3
	c0,5,1.3,9,4,12.6c2.7,3.7,6,6.3,10.3,7.6c1,0.7,2,1,2.7,1.7C196.9,122.9,197.9,124.5,198.6,126.5L198.6,126.5z M99.3,145.4
	c6.3,0,12.3-1.3,18.3-3.7c6-2.3,10.6-5.6,14.9-10c4.3-4.3,7.6-9.3,10-14.9s3.7-11.6,3.7-17.9s-1.3-12.3-3.7-17.9
	c-2.3-5.6-5.6-10.6-10-14.6c-4.3-4.3-9.3-7.6-14.9-10c-5.6-2.3-11.6-3.7-18.3-3.7c-6.3,0-12.3,1.3-17.9,3.7
	c-5.6,2.3-10.6,5.6-14.6,10c-4.3,4.3-7.6,9-10,14.6c-2.3,5.6-3.7,11.6-3.7,17.9s1.3,12.3,3.7,17.9c2.3,5.6,5.6,10.6,10,14.9
	c4.3,4.3,9,7.6,14.6,10C87,144.4,93,145.4,99.3,145.4z"/>
	<path class="st0" d="M86.7,99.3c0,7.2,5.8,13,12.9,13c7.2,0,13-5.8,13-12.9c0,0,0,0,0,0c0-7.2-5.8-13-12.9-13
	C92.5,86.3,86.7,92.1,86.7,99.3C86.7,99.3,86.7,99.3,86.7,99.3z"/>
</svg>
