<svg width="22" height="24" xmlns="http://www.w3.org/2000/svg">
<path d=" M 8.36 1.40 C 10.74 0.08 14.56 0.74 15.39 3.64 C 16.61 6.91 14.91 11.75 11.03 12.02 C 6.12 11.75 4.48 4.06 8.36 1.40 Z" />
<path d=" M 7.63 13.66 C 9.86 13.10 12.14 13.10 14.37 13.66 C 13.26 14.65 12.14 15.62 11.00 16.58 C 9.86 15.62 8.74 14.65 7.63 13.66 Z" />
<path d=" M 6.45 14.17 C 7.95 15.38 9.39 16.67 10.98 17.77 C 12.61 16.69 14.10 15.42 15.59 14.17 C 18.11 15.80 20.79 17.80 21.29 20.98 C 18.30 23.05 14.56 23.22 11.05 23.26 C 7.50 23.22 3.72 23.07 0.70 20.97 C 1.23 17.79 3.90 15.78 6.45 14.17 Z" />
</svg>
