<svg width="200" height="200" xmlns="http://www.w3.org/2000/svg">
<path d="M163.7,77c1.3,3.8,2.1,6.4,2.1,6.4s-0.1,2.3-2,2.3c-2.8,0-61,0-61,0h-8.1c0,0-58.2,0-61,0c-1.9,0-2-2.3-2-2.3
	s11.9-36.3,13.2-39.1c1.3-2.7,4.6-2.3,4.6-2.3h47.2h4h30.7V30h-31.4h-2.6H48.1c0,0-8.8-0.9-11.9,5S11.9,95.4,11.9,95.4v79
	c0,0,3,8.7,14.6,8.7c11.6,0,14.1-8.7,14.1-8.7v-12.2H98h1.5h57.4v12.2c0,0,2.5,8.7,14.1,8.7s14.6-8.7,14.6-8.7v-79
	c0,0-3.1-8.1-7.2-18.4H163.7z M46.9,135.1c-8.2,0-14.8-6.6-14.8-14.8s6.6-14.8,14.8-14.8s14.8,6.6,14.8,14.8S55.1,135.1,46.9,135.1z
	 M150.6,135.1c-8.2,0-14.8-6.6-14.8-14.8s6.6-14.8,14.8-14.8c8.2,0,14.8,6.6,14.8,14.8S158.8,135.1,150.6,135.1z" />
<path d="M155.3,71.5c-0.8-0.8-1.3-2-1.2-3.3c0.2-3.3-1-6.5-3.3-8.7c-2.3-2.3-5.4-3.5-8.7-3.3c-2.4,0.2-4.4-1.7-4.5-4.1
	c-0.1-2.4,1.8-4.5,4.2-4.6c5.7-0.4,11.3,1.7,15.3,5.7c4,4,6.1,9.6,5.7,15.3c-0.2,2.4-2.2,4.3-4.6,4.2C157,72.7,156,72.2,155.3,71.5
	L155.3,71.5L155.3,71.5L155.3,71.5z M169.8,70.4c-0.8-0.8-1.2-1.9-1.2-3c0.1-6.9-2.5-13.4-7.4-18.3c-4.9-4.9-11.3-7.5-18.3-7.4
	c-2.4,0-4.3-1.9-4.3-4.3c0-2.4,2-4.4,4.4-4.4c9.2-0.1,17.9,3.4,24.4,9.9c6.5,6.5,10,15.1,9.9,24.4c0,2.4-2,4.4-4.4,4.4
	C171.7,71.6,170.6,71.2,169.8,70.4L169.8,70.4L169.8,70.4L169.8,70.4z M184.3,69.3c-0.8-0.8-1.2-1.8-1.2-3
	c-0.1-10.5-4.2-20.3-11.5-27.7c-7.4-7.4-17.2-11.4-27.7-11.5c-2.4,0-4.3-2-4.2-4.4c0.1-2.4,2.1-4.3,4.5-4.3c12.7,0.1,24.7,5,33.6,14
	c8.9,8.9,13.9,20.9,14,33.6c0,2.4-1.9,4.4-4.3,4.5C186.2,70.6,185.1,70.1,184.3,69.3L184.3,69.3L184.3,69.3L184.3,69.3z M138.8,64.1
	c-2.1,2.1-2.1,5.4-0.1,7.4c2,2,5.4,2,7.4-0.1c2.1-2.1,2.1-5.4,0.1-7.4C144.2,62,140.9,62,138.8,64.1L138.8,64.1L138.8,64.1z" />
</svg>