<svg width="22" height="22" xmlns="http://www.w3.org/2000/svg">
<path d=" M 9.87 0.00 L 11.80 0.00 C 17.01 0.40 21.37 4.70 22.00 9.86 L 22.00 11.82 C 21.59 17.18 17.00 21.69 11.63 22.00 L 10.57 22.00 C 5.21 21.82 0.63 17.42 0.00 12.13 L 0.00 10.17 C 0.42 4.97 4.72 0.63 9.87 0.00 M 11.00 5.08 C 10.35 6.38 9.70 7.67 9.04 8.95 C 7.61 9.16 6.18 9.38 4.76 9.60 C 5.76 10.61 6.78 11.60 7.82 12.57 C 7.61 14.04 7.37 15.50 7.12 16.96 C 8.41 16.28 9.71 15.60 11.00 14.93 C 12.30 15.61 13.59 16.28 14.88 16.96 C 14.63 15.51 14.38 14.05 14.15 12.59 C 15.20 11.61 16.23 10.62 17.24 9.60 C 15.82 9.38 14.39 9.16 12.96 8.95 C 12.30 7.67 11.65 6.38 11.00 5.08 Z" />
</svg>